<svg xmlns="http://www.w3.org/2000/svg" version="1.1" xmlns:xlink="http://www.w3.org/1999/xlink" xmlns:svgjs="http://svgjs.dev/svgjs" width="100%" height="100%" viewBox="0 0 1000 600"><rect width="1000" height="600" x="0" y="0" fill="#295f2d"/><g><rect width="333.3333333333333" height="333.3333333333333" rx="13.333333333333334" ry="13.333333333333334" y="228.48017329435794" fill="#ffe67c" transform="matrix(0.606037291415754,0,0,0.6060372914157541,0,60.52628776015291)" x="206.25799560546875"/><path d="M347.27388158620624 470.1468481242098L328.80532790440014 470.1468481242098L328.80532790440014 320.14685116842946L417.0439732730294 320.14685116842946L417.0439732730294 336.9623552922962L346.874869623945 336.9623552922962L346.874869623945 386.8388505749516L411.7143134913971 386.8388505749516L411.7143134913971 403.6543546988183L347.27388158620624 403.6543546988183L347.27388158620624 470.1468481242098Z " fill="#295f2d" transform="matrix(0.606037291415754,0,0,0.6060372914157541,0,60.52628776015291)"/><path d="M641.1439573258236 468.1224773937121L622.924651640738 468.1224773937121L622.924651640738 320.14685112734526L709.9724454694805 320.14685112734526L709.9724454694805 336.73541648876585L640.7503303511459 336.73541648876585L640.7503303511459 385.93878832348787L704.7147137362845 385.93878832348787L704.7147137362845 402.5273536849084L641.1439573258236 402.5273536849084L641.1439573258236 468.1224773937121ZM836.4954016159085 468.1224773937121L801.0689738949086 468.1224773937121Q791.3407643778721 468.1224773937121 784.0586653463333 464.2705562843653Q776.7765663147945 460.4186351750185 772.7278317181087 453.3333496308185Q768.6790971214231 446.24806408661857 768.6790971214231 436.74478426939794L768.6790971214231 436.74478426939794L768.6790971214231 336.93222997610474L731.2283021020804 336.93222997610474L731.2283021020804 320.34366461468414L786.8984028065088 320.34366461468414L786.8984028065088 436.74478426939794Q786.8984028065088 443.633256326259 790.7503239158556 447.5695260730368Q794.6022450252024 451.53391203229154 801.0689738949086 451.53391203229154L801.0689738949086 451.53391203229154L836.4954016159085 451.53391203229154L836.4954016159085 468.1224773937121ZM907.3482570579082 470.14684469205497L907.3482570579082 470.14684469205497Q894.1898696186797 470.14684469205497 884.3773114642122 464.88911295885896Q874.5647533097449 459.6313812256629 869.1945567266409 450.0156365585344Q863.824360143537 440.39989189140584 863.824360143537 427.63513142685514L863.824360143537 427.63513142685514L863.824360143537 397.2696219517124Q863.824360143537 384.30804799982275 869.1945567266409 374.8047681826022Q874.5647533097449 365.2733721529046 884.3773114642122 360.0156404197086Q894.1898696186797 354.75790868651256 907.3482570579082 354.75790868651256L907.3482570579082 354.75790868651256Q920.5066444971367 354.75790868651256 930.3192026516042 360.0156404197086Q940.1317608060715 365.2733721529046 945.5019573891755 374.8047681826022Q950.8721539722794 384.30804799982275 950.8721539722794 397.2696219517124L950.8721539722794 397.2696219517124L950.8721539722794 416.8947382606472L881.6500388539448 416.8947382606472L881.6500388539448 427.63513142685514Q881.6500388539448 440.7935188660836 888.31358121099 447.7663395603757Q895.0052397805123 454.7672764671447 907.3482570579082 454.7672764671447L907.3482570579082 454.7672764671447Q917.8637205243001 454.7672764671447 924.3585656064835 451.0278202077058Q930.8252944761898 447.26024773578996 932.259221312516 439.7813352169122L932.259221312516 439.7813352169122L950.4785269976016 439.7813352169122Q948.6509731865976 453.75509281797326 936.8140477337874 461.9369106487756Q924.9490060685002 470.14684469205497 907.3482570579082 470.14684469205497ZM934.4804020981978 403.145910359402L933.0464752618716 404.74853447059013L933.0464752618716 397.2696219517124Q933.0464752618716 384.11123451248386 926.4672815422573 377.0259489682839Q919.888087822643 369.94066342408394 907.3482570579082 369.94066342408394L907.3482570579082 369.94066342408394Q895.0052397805123 369.94066342408394 888.31358121099 377.0259489682839Q881.6500388539448 384.11123451248386 881.6500388539448 397.2696219517124L881.6500388539448 397.2696219517124L881.6500388539448 403.145910359402L934.4804020981978 403.145910359402ZM999.4569691325078 468.1224773937121L978.2011124999078 468.1224773937121L1017.6762748175934 410.8216363656187L980.6191067729285 356.7822759848554L1002.0998931053442 356.7822759848554L1024.1430036872998 391.1965200566839Q1025.5769305236258 393.4177008423656 1026.8983925100442 396.0606248152021Q1028.1917382839854 398.6754325755616 1029.007108445818 400.3061728992267L1029.007108445818 400.3061728992267Q1029.6256651203116 398.6754325755616 1030.94712710673 396.0606248152021Q1032.2404728806712 393.4177008423656 1033.6743997169974 391.1965200566839L1033.6743997169974 391.1965200566839L1055.9424399987686 356.7822759848554L1077.1982966313685 356.7822759848554L1040.1411285867036 411.04656606543455L1079.4194774170503 468.1224773937121L1057.9668072971115 468.1224773937121L1034.0680266916752 431.6838660235408Q1032.662216067826 429.4626852378591 1031.3407540814076 426.5104829277758Q1030.0192920949894 423.5863968301694 1029.007108445818 421.7588430191655L1029.007108445818 421.7588430191655Q1028.1917382839854 423.5863968301694 1026.6734628102283 426.5104829277758Q1025.155187336471 429.4626852378591 1023.5525632252832 431.6838660235408L1023.5525632252832 431.6838660235408L999.4569691325078 468.1224773937121ZM1156.7390617287563 470.14684469205497L1156.7390617287563 470.14684469205497Q1142.990233827511 470.14684469205497 1134.6959511468008 462.75228081060817Q1126.3735522536135 455.35771692916137 1126.3735522536135 442.62107267708757L1126.3735522536135 442.62107267708757L1130.0286598756215 446.8666207611122L1126.3735522536135 446.8666207611122L1126.3735522536135 468.1224773937121L1108.154246568528 468.1224773937121L1108.154246568528 320.34366461468414L1126.3735522536135 320.34366461468414L1126.3735522536135 352.7335413881697L1125.9799252789358 378.03813261745535L1130.0286598756215 378.03813261745535L1126.3735522536135 382.2836807014799Q1126.3735522536135 369.74384993674505 1134.7802997842318 362.23682120539036Q1143.18704731485 354.75790868651256 1156.7390617287563 354.75790868651256L1156.7390617287563 354.75790868651256Q1173.5525567899927 354.75790868651256 1183.6743932817071 365.89192882739826Q1193.7962297734211 377.0259489682839 1193.7962297734211 396.257438302541L1193.7962297734211 396.257438302541L1193.7962297734211 428.8441285633654Q1193.7962297734211 447.8788044102836 1183.6743932817071 459.0128245511693Q1173.5525567899927 470.14684469205497 1156.7390617287563 470.14684469205497ZM1150.6659598337278 454.3455332799899L1150.6659598337278 454.3455332799899Q1162.2217231617683 454.3455332799899 1168.8852655188134 447.4851774356058Q1175.5769240883355 440.59670537874473 1175.5769240883355 427.63513142685514L1175.5769240883355 427.63513142685514L1175.5769240883355 397.2696219517124Q1175.5769240883355 384.30804799982275 1168.8852655188134 377.4195759429617Q1162.2217231617683 370.5592200985776 1150.6659598337278 370.5592200985776L1150.6659598337278 370.5592200985776Q1139.5319396928421 370.5592200985776 1132.9527459732278 377.6445056427776Q1126.3735522536135 384.72979118697754 1126.3735522536135 397.2696219517124L1126.3735522536135 397.2696219517124L1126.3735522536135 427.63513142685514Q1126.3735522536135 440.17496219159 1132.9527459732278 447.26024773578996Q1139.5319396928421 454.3455332799899 1150.6659598337278 454.3455332799899ZM1271.7343707596208 469.7532177173772L1271.7343707596208 469.7532177173772Q1258.3791698330535 469.7532177173772 1248.650960316017 464.6922994715201Q1238.9508670114576 459.6313812256629 1233.5806704283536 450.0156365585344Q1228.2104738452497 440.39989189140584 1228.2104738452497 427.24150445217737L1228.2104738452497 427.24150445217737L1228.2104738452497 397.66324892639017Q1228.2104738452497 384.30804799982275 1233.5806704283536 374.8047681826022Q1238.9508670114576 365.2733721529046 1248.650960316017 360.21245390704746Q1258.3791698330535 355.15153566119034 1271.7343707596208 355.15153566119034L1271.7343707596208 355.15153566119034Q1285.0895716861883 355.15153566119034 1294.8177812032247 360.21245390704746Q1304.5178745077842 365.2733721529046 1309.8880710908882 374.8047681826022Q1315.2582676739921 384.30804799982275 1315.2582676739921 397.4664354390513L1315.2582676739921 397.4664354390513L1315.2582676739921 427.24150445217737Q1315.2582676739921 440.39989189140584 1309.8880710908882 450.0156365585344Q1304.5178745077842 459.6313812256629 1294.8177812032247 464.6922994715201Q1285.0895716861883 469.7532177173772 1271.7343707596208 469.7532177173772ZM1271.7343707596208 453.5582793306344L1271.7343707596208 453.5582793306344Q1283.683761062339 453.5582793306344 1290.3473034193842 446.8666207611122Q1297.0389619889063 440.17496219159 1297.0389619889063 427.24150445217737L1297.0389619889063 427.24150445217737L1297.0389619889063 397.66324892639017Q1297.0389619889063 384.72979118697754 1290.3473034193842 378.03813261745535Q1283.683761062339 371.34647404793316 1271.7343707596208 371.34647404793316L1271.7343707596208 371.34647404793316Q1259.9817939442416 371.34647404793316 1253.2057867372885 378.03813261745535Q1246.4297795303353 384.72979118697754 1246.4297795303353 397.66324892639017L1246.4297795303353 397.66324892639017L1246.4297795303353 427.24150445217737Q1246.4297795303353 440.17496219159 1253.2057867372885 446.8666207611122Q1259.9817939442416 453.5582793306344 1271.7343707596208 453.5582793306344ZM1363.8430828342205 468.1224773937121L1342.5872262016205 468.1224773937121L1382.062388519306 410.8216363656187L1345.0052204746412 356.7822759848554L1366.486006807057 356.7822759848554L1388.5291173890125 391.1965200566839Q1389.9630442253385 393.4177008423656 1391.284506211757 396.0606248152021Q1392.577851985698 398.6754325755616 1393.3932221475307 400.3061728992267L1393.3932221475307 400.3061728992267Q1394.0117788220243 398.6754325755616 1395.3332408084427 396.0606248152021Q1396.6265865823837 393.4177008423656 1398.06051341871 391.1965200566839L1398.06051341871 391.1965200566839L1420.3285537004813 356.7822759848554L1441.5844103330812 356.7822759848554L1404.5272422884161 411.04656606543455L1443.805591118763 468.1224773937121L1422.3529209988244 468.1224773937121L1398.454140393388 431.6838660235408Q1397.0483297695384 429.4626852378591 1395.7268677831203 426.5104829277758Q1394.405405796702 423.5863968301694 1393.3932221475307 421.7588430191655L1393.3932221475307 421.7588430191655Q1392.577851985698 423.5863968301694 1391.059576511941 426.5104829277758Q1389.5413010381837 429.4626852378591 1387.9386769269956 431.6838660235408L1387.9386769269956 431.6838660235408L1363.8430828342205 468.1224773937121Z " fill="#ffe67c" transform="matrix(0.606037291415754,0,0,0.6060372914157541,0,60.52628776015291)"/></g></svg>